# xmcd
#
# Track frame offsets:
#	150
#	13848
#	31896
#	46269
#	62667
#	78690
#	101238
#	115311
#	133284
#	148857
#	161880
#	177828
#
# Disc length: 2610 seconds
#
# Revision: 1
# Processed by: cddbd v1.5.2PL0 Copyright (c) Steve Scherf et al.
# Submitted via: audiograbber 1.83.01
#
DISCID=af0a300c
DTITLE=Terri Clark - 20th Century Masters - The Millennium Collection
DYEAR=1900
DGENRE=
TTITLE0=When Boy Meets Girl
TTITLE1=Suddenly Single
TTITLE2=Poor, Poor Pitiful Me
TTITLE3=Now That I Found You
TTITLE4=You're Easy on the Eyes
TTITLE5=Unsung Hero
TTITLE6=A Little Gasoline
TTITLE7=No Fear
TTITLE8=I Just Wanna Be Mad
TTITLE9=I Wanna Do It All
TTITLE10=Girls Lie Too
TTITLE11=The World Needs a Drink
EXTD=
EXTT0=
EXTT1=
EXTT2=
EXTT3=
EXTT4=
EXTT5=
EXTT6=
EXTT7=
EXTT8=
EXTT9=
EXTT10=
EXTT11=
PLAYORDER=
